<svg xmlns="http://www.w3.org/2000/svg" width="19.43" height="24.298" viewBox="0 0 19.43 24.298"><defs><style>.a{opacity:0.501;}.b{fill:#e24301;}</style></defs><g class="a" transform="translate(-51.288 0)"><path class="b" d="M68.136,22.874V4.645h-1.9V1.561H61.715V0H60.291V1.561H55.767V4.645h-1.9v18.23H51.288V24.3h19.43V22.874ZM57.191,2.985h7.624v1.66H57.191Zm6.674,19.889h-2.15v-5.2h2.15Zm-3.574,0h-2.15v-5.2h2.15Zm5,0V16.248H56.717v6.626H55.293V6.068H66.713V22.874Z"/><path class="b" d="M165.688,158.205h1.424v1.424h-1.424Z" transform="translate(-108.971 -150.697)"/><path class="b" d="M316.312,158.205h1.424v1.424h-1.424Z" transform="translate(-252.447 -150.697)"/><path class="b" d="M241,158.205h1.424v1.424H241Z" transform="translate(-180.709 -150.697)"/><path class="b" d="M165.688,218.541h1.424v1.424h-1.424Z" transform="translate(-108.971 -208.17)"/><path class="b" d="M316.312,218.541h1.424v1.424h-1.424Z" transform="translate(-252.447 -208.17)"/><path class="b" d="M241,218.541h1.424v1.424H241Z" transform="translate(-180.709 -208.17)"/><path class="b" d="M165.688,278.878h1.424V280.3h-1.424Z" transform="translate(-108.971 -265.643)"/><path class="b" d="M316.312,278.878h1.424V280.3h-1.424Z" transform="translate(-252.447 -265.643)"/><path class="b" d="M241,278.878h1.424V280.3H241Z" transform="translate(-180.709 -265.643)"/></g></svg>