<svg xmlns="http://www.w3.org/2000/svg" width="21.969" height="22.709" viewBox="0 0 21.969 22.709"><defs><style>.a{fill:#e24301;stroke:#e24301;stroke-width:0.5px;opacity:0.501;}</style></defs><path class="a" d="M25.11,27.845h1.967a1.1,1.1,0,0,0,.3,1.189l3.039,2.785h0l.007.007,4.8,4.162H35.1a.37.37,0,0,0-.37.37v1.481a.37.37,0,0,0,.37.37h4.442a.37.37,0,0,0,.37-.37V36.358a.37.37,0,0,0-.37-.37V35.4l.2-.2a1.839,1.839,0,0,0,.542-1.309V31.626l1.342-2.952a1.105,1.105,0,0,0,.036-.83h2.694a1.112,1.112,0,0,0,1.11-1.11v-.74a.37.37,0,0,0-.37-.37H43.618v-.37a7.782,7.782,0,0,0-7.773-7.773v-.74h.37a.37.37,0,0,0,0-.74H33.254a.37.37,0,1,0,0,.74h.37v.74a7.782,7.782,0,0,0-7.773,7.773v.37H24.37a.37.37,0,0,0-.37.37v.74a1.112,1.112,0,0,0,1.11,1.11Zm2.669.236a.362.362,0,0,1,.345-.236h.211a.371.371,0,0,1,.337.217l.278.612h0l.624,1.372-1.7-1.559A.362.362,0,0,1,27.779,28.081Zm11.4,9.388h-3.7v-.74h3.7Zm1.753-9.454a.364.364,0,0,1,.026.354l-1.375,3.025a.371.371,0,0,0-.033.153v2.348a1.1,1.1,0,0,1-.325.785l-.307.307a.37.37,0,0,0-.108.262v.74H36.353L30.966,31.32l-1.342-2.951a.37.37,0,0,1,.337-.523h.244a.368.368,0,0,1,.331.2L31.812,30.6a.37.37,0,0,0,.194.178l3.7,1.481a.37.37,0,0,0,.227.015l1.481-.37a.37.37,0,0,0,.235-.182l2.01-3.686a.37.37,0,0,1,.325-.193h.632A.364.364,0,0,1,40.929,28.015Zm-9.667-.17h7.661l-1.845,3.382-1.207.3-3.459-1.384Zm3.1-11.1h.74v.74h-.74Zm-7.773,8.513a7.041,7.041,0,0,1,7.033-7.033h2.221a7.041,7.041,0,0,1,7.033,7.033v.37H26.591Zm-1.851,1.11H44.728v.37a.371.371,0,0,1-.37.37H25.11a.371.371,0,0,1-.37-.37Z" transform="translate(-23.75 -15.75)"/></svg>