<svg xmlns="http://www.w3.org/2000/svg" width="16.495" height="22.142" viewBox="0 0 16.495 22.142"><defs><style>.a,.c{opacity:0.501;}.b,.c{fill:#e24301;}.b{stroke:#e24301;stroke-width:0.7px;}.c{font-size:11px;font-family:Avenir-Black, Avenir;font-weight:800;}</style></defs><g transform="translate(-21.65 -12.941)"><g class="a" transform="translate(12 11.024)"><path class="b" d="M17.9,23.709a.359.359,0,0,1-.236-.089,31.051,31.051,0,0,1-3.818-4.173C11.292,16.1,10,12.979,10,10.164a7.9,7.9,0,1,1,15.795,0c0,2.815-1.292,5.938-3.841,9.283a31.05,31.05,0,0,1-3.82,4.173A.359.359,0,0,1,17.9,23.709Zm0-20.82a7.236,7.236,0,0,0-7.179,7.275c0,5.7,5.913,11.52,7.179,12.7,1.266-1.18,7.179-7,7.179-12.7A7.236,7.236,0,0,0,17.9,2.889Z" transform="translate(0 0)"/></g><text class="c" transform="translate(26 26)"><tspan x="0" y="0">H</tspan></text></g></svg>