<svg xmlns="http://www.w3.org/2000/svg" width="25.298" height="25.298" viewBox="0 0 25.298 25.298"><defs><style>.a{opacity:0.2;}</style></defs><g class="a"><path d="M240.791,130.372a.791.791,0,0,0,.791-.791v-.791a.791.791,0,0,0-1.581,0v.791A.791.791,0,0,0,240.791,130.372Z" transform="translate(-228.142 -121.676)"/><path d="M176.791,130.372a.791.791,0,0,0,.791-.791v-.791a.791.791,0,0,0-1.581,0v.791A.791.791,0,0,0,176.791,130.372Z" transform="translate(-167.304 -121.676)"/><path d="M304.791,130.372a.791.791,0,0,0,.791-.791v-.791a.791.791,0,0,0-1.581,0v.791A.791.791,0,0,0,304.791,130.372Z" transform="translate(-288.979 -121.676)"/><path d="M240.791,210.372a.791.791,0,0,0,.791-.791v-.791a.791.791,0,1,0-1.581,0v.791A.791.791,0,0,0,240.791,210.372Z" transform="translate(-228.142 -197.723)"/><path d="M176.791,210.372a.791.791,0,0,0,.791-.791v-.791a.791.791,0,0,0-1.581,0v.791A.791.791,0,0,0,176.791,210.372Z" transform="translate(-167.304 -197.723)"/><path d="M304.791,210.372a.791.791,0,0,0,.791-.791v-.791a.791.791,0,1,0-1.581,0v.791A.791.791,0,0,0,304.791,210.372Z" transform="translate(-288.979 -197.723)"/><path d="M240.791,290.372a.791.791,0,0,0,.791-.791v-.791a.791.791,0,1,0-1.581,0v.791A.791.791,0,0,0,240.791,290.372Z" transform="translate(-228.142 -273.77)"/><path d="M176.791,290.372a.791.791,0,0,0,.791-.791v-.791a.791.791,0,0,0-1.581,0v.791A.791.791,0,0,0,176.791,290.372Z" transform="translate(-167.304 -273.77)"/><path d="M304.791,290.372a.791.791,0,0,0,.791-.791v-.791a.791.791,0,1,0-1.581,0v.791A.791.791,0,0,0,304.791,290.372Z" transform="translate(-288.979 -273.77)"/><path d="M24.507,9.091H19.764V3.953a.791.791,0,0,0-.791-.791H17.788V.791A.791.791,0,0,0,17,0H8.3A.791.791,0,0,0,7.51.791V3.162H6.324a.791.791,0,0,0-.791.791V9.091H.791A.791.791,0,0,0,0,9.882V24.507a.791.791,0,0,0,.791.791H24.507a.791.791,0,0,0,.791-.791V9.882A.791.791,0,0,0,24.507,9.091ZM9.091,1.581h7.115V3.162H9.091Zm-7.51,9.091H5.534V23.717H1.581ZM7.115,4.743H18.183V23.717H16.206V19.764a.791.791,0,1,0,0-1.581H9.091a.791.791,0,0,0,0,1.581v3.953H7.115Zm3.558,18.973V19.764h3.953v3.953Zm13.044,0H19.764V10.673h3.953Z"/><path d="M424.791,250.372a.791.791,0,0,0,.791-.791v-.791a.791.791,0,1,0-1.581,0v.791A.791.791,0,0,0,424.791,250.372Z" transform="translate(-403.05 -235.746)"/><path d="M424.791,322.372a.791.791,0,0,0,.791-.791v-.791a.791.791,0,1,0-1.581,0v.791A.791.791,0,0,0,424.791,322.372Z" transform="translate(-403.05 -304.189)"/><path d="M424.791,394.372a.791.791,0,0,0,.791-.791v-.791a.791.791,0,1,0-1.581,0v.791A.791.791,0,0,0,424.791,394.372Z" transform="translate(-403.05 -372.631)"/><path d="M56.791,248a.791.791,0,0,0-.791.791v.791a.791.791,0,1,0,1.581,0v-.791A.791.791,0,0,0,56.791,248Z" transform="translate(-53.233 -235.746)"/><path d="M56.791,320a.791.791,0,0,0-.791.791v.791a.791.791,0,1,0,1.581,0v-.791A.791.791,0,0,0,56.791,320Z" transform="translate(-53.233 -304.189)"/><path d="M56.791,392a.791.791,0,0,0-.791.791v.791a.791.791,0,1,0,1.581,0v-.791A.791.791,0,0,0,56.791,392Z" transform="translate(-53.233 -372.631)"/></g></svg>